<?xml version="1.0" standalone="no"?>
<!DOCTYPE svg PUBLIC "-//W3C//DTD SVG 20010904//EN"
 "http://www.w3.org/TR/2001/REC-SVG-20010904/DTD/svg10.dtd">
<svg version="1.0" xmlns="http://www.w3.org/2000/svg"
 width="300.000000pt" height="300.000000pt" viewBox="0 0 300.000000 300.000000"
 preserveAspectRatio="xMidYMid meet">
<metadata>
Created by potrace 1.10, written by Peter Selinger 2001-2011
</metadata>
<g transform="translate(0.000000,300.000000) scale(0.100000,-0.100000)"
fill="#000000" stroke="none">
<path d="M670 1500 l0 -1500 830 0 830 0 0 1500 0 1500 -830 0 -830 0 0 -1500z
m830 965 l0 -235 -325 0 -325 0 0 235 0 235 325 0 325 0 0 -235z m650 -650 l0
-235 -325 0 -325 0 0 235 0 235 325 0 325 0 0 -235z m-650 -650 l0 -235 -325
0 -325 0 0 235 0 235 325 0 325 0 0 -235z"/>
</g>
</svg>
