<?xml version="1.0" standalone="no"?>
<!DOCTYPE svg PUBLIC "-//W3C//DTD SVG 20010904//EN"
 "http://www.w3.org/TR/2001/REC-SVG-20010904/DTD/svg10.dtd">
<svg version="1.0" xmlns="http://www.w3.org/2000/svg"
 width="300.000000pt" height="300.000000pt" viewBox="0 0 300.000000 300.000000"
 preserveAspectRatio="xMidYMid meet">
<metadata>
Created by potrace 1.10, written by Peter Selinger 2001-2011
</metadata>
<g transform="translate(0.000000,300.000000) scale(0.050000,-0.050000)"
fill="#000000" stroke="none">
<path d="M1629 5952 c-217 -95 -230 -420 -21 -520 139 -65 323 -17 376 98 l22
50 427 0 c235 0 433 0 441 0 44 0 8 -270 -37 -275 -1169 -126 -2073 -1000
-2142 -2072 l-5 -76 -135 -4 -135 -3 0 415 0 416 90 86 c247 236 -29 617 -330
456 -77 -41 -135 -125 -141 -203 -10 -135 1 -167 91 -253 l90 -86 0 -488 c0
-596 -15 -565 266 -548 l187 11 25 -209 c64 -554 314 -1050 720 -1432 91 -85
174 -155 184 -155 10 0 18 -97 18 -215 l0 -215 -374 5 -375 4 -47 61 c-174
222 -524 108 -524 -170 0 -279 350 -392 525 -169 l48 62 436 -2 c541 -3 511
-19 511 272 0 114 4 207 8 207 5 0 71 -31 146 -70 562 -285 1270 -316 1850
-80 31 12 34 -11 30 -287 -5 -398 -47 -368 500 -355 403 9 425 8 436 -28 56
-178 375 -201 492 -37 216 303 -232 635 -462 342 l-44 -55 -358 -10 -358 -10
0 274 0 275 65 33 c517 266 1000 917 1116 1503 l24 125 128 0 127 0 0 -437 0
-436 -78 -63 c-239 -192 -78 -564 221 -514 253 43 328 412 108 530 l-51 27 0
515 c0 618 17 578 -247 578 l-184 0 8 143 c15 269 -70 699 -187 941 -27 57
-50 109 -50 115 0 6 143 8 319 5 426 -9 406 -28 399 385 l-5 306 73 64 c277
243 -15 638 -341 463 -159 -84 -160 -389 -2 -480 55 -31 55 -32 61 -279 3
-136 2 -248 -4 -250 -5 -2 -150 0 -320 3 l-311 6 -57 90 c-313 495 -986 890
-1641 963 l-139 15 5 200 c8 301 50 280 -566 280 l-511 0 -38 62 c-65 106
-231 153 -353 100z m180 -211 c45 -49 24 -117 -41 -133 -59 -15 -108 21 -108
80 0 90 87 121 149 53z m1552 -669 c1562 -279 2264 -2162 1265 -3391 -1097
-1349 -3250 -873 -3678 813 -372 1469 916 2845 2413 2578z m2375 -16 c58 -58
-14 -163 -98 -141 -48 12 -71 95 -38 135 30 36 103 39 136 6z m-5360 -720 c53
-53 15 -156 -59 -156 -45 0 -97 75 -82 117 23 63 97 83 141 39z m5304 -2826
c33 -40 10 -123 -38 -135 -49 -13 -122 36 -122 82 0 77 110 114 160 53z
m-5011 -855 c15 -43 12 -63 -13 -88 -42 -41 -129 -22 -146 32 -36 114 119 169
159 56z m4440 -286 c40 -40 39 -67 -2 -112 -59 -66 -147 -34 -147 53 0 84 88
119 149 59z"/>
<path d="M1644 4116 c-39 -39 -33 -1412 7 -1612 109 -533 544 -952 1152 -1108
538 -138 1291 362 1499 994 55 167 87 1661 37 1721 -32 39 -2656 44 -2695 5z
m2511 -861 c-7 -634 -11 -695 -51 -815 -140 -425 -489 -725 -989 -851 -342
-86 -958 257 -1150 641 -129 256 -131 276 -140 1025 l-8 685 1173 0 1174 0 -9
-685z"/>
<path d="M2551 3709 c-25 -26 -31 -85 -31 -320 l0 -289 -126 0 c-179 0 -174
11 -174 -429 0 -602 -14 -591 760 -591 792 0 780 -9 780 589 0 442 5 431 -174
431 l-126 0 0 287 c0 252 -4 291 -37 320 -53 48 -823 50 -872 2z m699 -389 l0
-220 -260 0 -260 0 0 220 0 220 260 0 260 0 0 -220z m310 -699 c0 -373 54
-341 -570 -341 -624 0 -570 -32 -570 341 l0 279 570 0 570 0 0 -279z"/>
<path d="M2873 2771 c-60 -56 -70 -141 -24 -202 17 -22 30 -67 30 -101 1 -70
54 -128 116 -128 50 0 105 70 105 133 0 24 15 70 33 102 94 164 -120 326 -260
196z"/>
</g>
</svg>
