<svg id="svg" version="1.1" xmlns="http://www.w3.org/2000/svg" xmlns:xlink="http://www.w3.org/1999/xlink" width="400" height="400" viewBox="0, 0, 400,400"><g id="svgg"><path id="path0" d="M209.730 7.100 C 209.851 7.705,210.142 8.965,210.375 9.900 C 211.591 14.767,211.947 16.540,212.808 22.000 C 214.715 34.108,215.238 55.005,213.983 69.000 C 212.979 80.199,211.957 88.543,210.796 95.000 C 210.598 96.100,210.236 98.170,209.992 99.600 C 209.747 101.030,209.393 102.920,209.206 103.800 C 209.018 104.680,208.651 106.480,208.390 107.800 C 208.128 109.120,207.776 110.650,207.607 111.200 C 207.438 111.750,207.084 113.190,206.820 114.400 C 206.557 115.610,206.195 117.050,206.017 117.600 C 205.839 118.150,205.464 119.410,205.185 120.400 C 200.311 137.667,194.400 144.353,194.400 132.600 C 194.400 131.771,194.229 129.991,194.019 128.646 C 193.810 127.301,193.437 124.670,193.192 122.800 C 192.424 116.943,191.441 112.586,189.583 106.800 C 188.520 103.493,188.496 103.433,186.052 98.280 C 182.501 90.794,178.521 85.518,173.200 81.245 C 172.210 80.450,171.310 79.696,171.200 79.570 C 169.654 77.792,160.492 73.027,156.600 71.976 C 151.232 70.528,143.024 69.243,142.498 69.769 C 142.217 70.049,142.104 69.952,144.800 71.743 C 149.697 74.996,154.542 83.001,156.337 90.800 C 156.564 91.790,156.860 93.050,156.993 93.600 C 158.232 98.718,158.230 110.958,156.988 117.400 C 154.954 127.951,150.038 139.815,143.908 148.969 C 135.318 161.797,122.971 174.157,109.000 183.914 C 107.680 184.836,105.790 186.163,104.800 186.863 C 102.092 188.777,95.428 193.712,95.200 193.972 C 95.090 194.097,94.100 194.913,93.000 195.785 C 90.197 198.006,82.143 206.126,79.892 209.000 C 76.978 212.720,73.936 216.937,73.689 217.600 C 73.566 217.930,72.990 218.920,72.408 219.800 C 71.448 221.253,68.610 226.882,67.063 230.400 C 66.393 231.924,64.495 237.476,63.986 239.400 C 63.812 240.060,63.408 241.590,63.088 242.800 C 62.516 244.969,62.139 246.904,61.142 252.800 C 60.821 254.699,60.637 259.617,60.640 266.200 C 60.646 277.443,60.974 281.210,63.027 293.600 C 65.192 306.666,65.595 310.927,64.632 310.557 C 63.961 310.299,60.594 305.845,58.908 302.985 C 58.255 301.876,57.086 299.986,56.310 298.785 C 54.328 295.717,46.282 282.074,44.405 278.600 C 43.412 276.763,41.739 273.860,40.831 272.403 C 40.147 271.303,39.941 272.301,40.372 274.634 C 40.608 275.906,40.800 277.710,40.800 278.643 C 40.800 279.576,40.971 281.208,41.181 282.269 C 41.390 283.331,41.764 285.550,42.011 287.200 C 42.259 288.850,42.619 290.920,42.811 291.800 C 43.003 292.680,43.377 294.390,43.641 295.600 C 43.905 296.810,44.560 299.330,45.096 301.200 C 45.632 303.070,46.216 305.140,46.395 305.800 C 47.048 308.218,49.696 315.752,50.682 318.000 C 54.850 327.494,62.852 341.065,66.013 344.000 C 66.132 344.110,67.323 345.550,68.660 347.200 C 77.115 357.632,95.012 370.754,107.600 375.751 C 108.590 376.144,110.030 376.739,110.800 377.074 C 114.761 378.794,120.037 380.645,124.800 381.986 C 125.790 382.265,127.050 382.638,127.600 382.815 C 128.528 383.113,133.675 384.367,137.400 385.202 C 145.341 386.982,153.324 388.169,164.342 389.209 C 169.758 389.720,198.045 389.714,203.979 389.200 C 210.538 388.632,216.304 387.992,218.400 387.598 C 219.390 387.413,221.370 387.055,222.800 386.804 C 225.284 386.367,226.419 386.133,230.700 385.175 C 233.000 384.660,235.448 384.021,236.800 383.583 C 237.350 383.405,240.230 382.510,243.200 381.594 C 246.170 380.679,249.363 379.586,250.296 379.165 C 251.228 378.744,252.093 378.400,252.218 378.400 C 252.747 378.400,262.612 373.480,265.036 372.007 C 266.491 371.123,267.761 370.400,267.859 370.400 C 268.111 370.400,273.996 366.435,275.229 365.435 C 275.794 364.976,276.867 364.150,277.612 363.600 C 281.776 360.528,290.179 352.135,293.800 347.433 C 294.460 346.576,295.376 345.408,295.836 344.837 C 297.010 343.379,301.600 336.484,301.600 336.177 C 301.600 336.038,301.933 335.446,302.341 334.862 C 304.091 332.354,307.595 324.978,309.972 318.800 C 312.360 312.591,312.754 311.433,313.987 307.000 C 316.237 298.910,316.396 298.212,317.982 289.500 C 320.003 278.402,321.005 263.733,320.654 250.400 C 320.215 233.715,319.556 225.782,316.763 203.600 C 314.307 184.094,317.491 167.426,324.793 161.558 C 325.664 160.858,326.288 160.143,326.180 159.968 C 325.906 159.524,322.099 157.753,320.300 157.233 C 319.475 156.995,318.202 156.620,317.472 156.400 C 315.828 155.905,310.923 155.877,309.360 156.353 C 308.722 156.548,307.390 156.947,306.400 157.240 C 304.344 157.848,301.006 159.516,299.597 160.638 C 297.052 162.665,293.335 166.451,291.682 168.702 C 289.296 171.948,289.230 171.793,289.667 164.000 C 290.339 152.017,289.462 135.030,287.576 123.500 C 286.810 118.816,286.337 116.158,285.993 114.600 C 285.798 113.720,285.428 112.010,285.170 110.800 C 284.912 109.590,284.564 108.150,284.397 107.600 C 284.230 107.050,283.900 105.880,283.665 105.000 C 280.637 93.662,277.560 85.604,271.749 73.800 C 269.908 70.060,267.906 66.180,267.301 65.178 C 266.695 64.175,265.670 62.465,265.022 61.378 C 259.134 51.494,249.920 39.795,240.137 29.780 C 232.227 21.683,218.885 10.935,211.910 7.041 C 209.586 5.743,209.458 5.746,209.730 7.100 M193.200 277.678 C 214.620 286.255,225.838 303.531,228.216 331.600 C 231.002 364.493,216.463 382.495,187.200 382.389 C 162.244 382.298,148.005 373.308,145.549 356.093 C 145.046 352.566,145.314 343.182,146.004 340.177 C 148.803 327.985,151.202 321.207,156.473 310.600 C 160.737 302.018,161.592 301.038,161.614 304.700 C 161.675 314.497,166.946 320.346,176.058 320.728 C 190.689 321.341,194.852 306.911,187.768 280.140 C 187.236 278.127,186.800 276.372,186.800 276.240 C 186.800 275.578,189.431 276.169,193.200 277.678 " stroke="none" fill="#f46432" fill-rule="evenodd"></path><path id="path1" d="M0.000 200.000 L 0.000 400.000 200.000 400.000 L 400.000 400.000 400.000 200.000 L 400.000 0.000 200.000 0.000 L 0.000 0.000 0.000 200.000 M211.910 7.041 C 218.885 10.935,232.227 21.683,240.137 29.780 C 249.920 39.795,259.134 51.494,265.022 61.378 C 265.670 62.465,266.695 64.175,267.301 65.178 C 269.752 69.235,275.574 81.444,277.804 87.200 C 280.281 93.595,282.071 99.028,283.665 105.000 C 283.900 105.880,284.230 107.050,284.397 107.600 C 284.564 108.150,284.912 109.590,285.170 110.800 C 285.428 112.010,285.798 113.720,285.993 114.600 C 286.337 116.158,286.810 118.816,287.576 123.500 C 289.462 135.030,290.339 152.017,289.667 164.000 C 289.230 171.793,289.296 171.948,291.682 168.702 C 293.335 166.451,297.052 162.665,299.597 160.638 C 301.006 159.516,304.344 157.848,306.400 157.240 C 307.390 156.947,308.722 156.548,309.360 156.353 C 310.923 155.877,315.828 155.905,317.472 156.400 C 318.202 156.620,319.475 156.995,320.300 157.233 C 322.099 157.753,325.906 159.524,326.180 159.968 C 326.288 160.143,325.664 160.858,324.793 161.558 C 317.491 167.426,314.307 184.094,316.763 203.600 C 319.556 225.782,320.215 233.715,320.654 250.400 C 321.005 263.733,320.003 278.402,317.982 289.500 C 316.396 298.212,316.237 298.910,313.987 307.000 C 312.754 311.433,312.360 312.591,309.972 318.800 C 307.595 324.978,304.091 332.354,302.341 334.862 C 301.933 335.446,301.600 336.038,301.600 336.177 C 301.600 336.484,297.010 343.379,295.836 344.837 C 295.376 345.408,294.460 346.576,293.800 347.433 C 290.179 352.135,281.776 360.528,277.612 363.600 C 276.867 364.150,275.794 364.976,275.229 365.435 C 273.996 366.435,268.111 370.400,267.859 370.400 C 267.761 370.400,266.491 371.123,265.036 372.007 C 262.612 373.480,252.747 378.400,252.218 378.400 C 252.093 378.400,251.228 378.744,250.296 379.165 C 249.363 379.586,246.170 380.679,243.200 381.594 C 240.230 382.510,237.350 383.405,236.800 383.583 C 235.448 384.021,233.000 384.660,230.700 385.175 C 226.419 386.133,225.284 386.367,222.800 386.804 C 221.370 387.055,219.390 387.413,218.400 387.598 C 216.304 387.992,210.538 388.632,203.979 389.200 C 198.045 389.714,169.758 389.720,164.342 389.209 C 153.324 388.169,145.341 386.982,137.400 385.202 C 133.675 384.367,128.528 383.113,127.600 382.815 C 127.050 382.638,125.790 382.265,124.800 381.986 C 120.037 380.645,114.761 378.794,110.800 377.074 C 110.030 376.739,108.590 376.144,107.600 375.751 C 95.012 370.754,77.115 357.632,68.660 347.200 C 67.323 345.550,66.132 344.110,66.013 344.000 C 62.852 341.065,54.850 327.494,50.682 318.000 C 49.696 315.752,47.048 308.218,46.395 305.800 C 46.216 305.140,45.632 303.070,45.096 301.200 C 44.560 299.330,43.905 296.810,43.641 295.600 C 43.377 294.390,43.003 292.680,42.811 291.800 C 42.619 290.920,42.259 288.850,42.011 287.200 C 41.764 285.550,41.390 283.331,41.181 282.269 C 40.971 281.208,40.800 279.576,40.800 278.643 C 40.800 277.710,40.608 275.906,40.372 274.634 C 39.941 272.301,40.147 271.303,40.831 272.403 C 41.739 273.860,43.412 276.763,44.405 278.600 C 46.282 282.074,54.328 295.717,56.310 298.785 C 57.086 299.986,58.255 301.876,58.908 302.985 C 60.594 305.845,63.961 310.299,64.632 310.557 C 65.595 310.927,65.192 306.666,63.027 293.600 C 60.974 281.210,60.646 277.443,60.640 266.200 C 60.637 259.617,60.821 254.699,61.142 252.800 C 62.139 246.904,62.516 244.969,63.088 242.800 C 63.408 241.590,63.812 240.060,63.986 239.400 C 64.495 237.476,66.393 231.924,67.063 230.400 C 68.610 226.882,71.448 221.253,72.408 219.800 C 72.990 218.920,73.566 217.930,73.689 217.600 C 73.936 216.937,76.978 212.720,79.892 209.000 C 82.143 206.126,90.197 198.006,93.000 195.785 C 94.100 194.913,95.090 194.097,95.200 193.972 C 95.428 193.712,102.092 188.777,104.800 186.863 C 105.790 186.163,107.680 184.836,109.000 183.914 C 124.359 173.187,139.265 157.673,146.420 144.969 C 155.424 128.980,159.104 114.369,157.746 100.001 C 157.465 97.031,157.126 94.150,156.993 93.600 C 156.860 93.050,156.564 91.790,156.337 90.800 C 154.542 83.001,149.697 74.996,144.800 71.743 C 142.104 69.952,142.217 70.049,142.498 69.769 C 143.024 69.243,151.232 70.528,156.600 71.976 C 160.492 73.027,169.654 77.792,171.200 79.570 C 171.310 79.696,172.210 80.450,173.200 81.245 C 178.521 85.518,182.501 90.794,186.052 98.280 C 188.496 103.433,188.520 103.493,189.583 106.800 C 191.441 112.586,192.424 116.943,193.192 122.800 C 193.437 124.670,193.810 127.301,194.019 128.646 C 194.229 129.991,194.400 131.771,194.400 132.600 C 194.400 144.353,200.311 137.667,205.185 120.400 C 205.464 119.410,205.839 118.150,206.017 117.600 C 206.195 117.050,206.557 115.610,206.820 114.400 C 207.084 113.190,207.438 111.750,207.607 111.200 C 207.776 110.650,208.128 109.120,208.390 107.800 C 208.651 106.480,209.018 104.680,209.206 103.800 C 209.393 102.920,209.747 101.030,209.992 99.600 C 210.236 98.170,210.598 96.100,210.796 95.000 C 211.957 88.543,212.979 80.199,213.983 69.000 C 215.238 55.005,214.715 34.108,212.808 22.000 C 211.947 16.540,211.591 14.767,210.375 9.900 C 209.264 5.448,209.216 5.537,211.910 7.041 " stroke="none" fill="#fcfbfb" fill-rule="evenodd"></path><path id="path2" d="M186.800 276.240 C 186.800 276.372,187.236 278.127,187.768 280.140 C 194.852 306.911,190.689 321.341,176.058 320.728 C 166.946 320.346,161.675 314.497,161.614 304.700 C 161.592 301.038,160.737 302.018,156.473 310.600 C 151.202 321.207,148.803 327.985,146.004 340.177 C 145.314 343.182,145.046 352.566,145.549 356.093 C 148.005 373.308,162.244 382.298,187.200 382.389 C 216.463 382.495,231.002 364.493,228.216 331.600 C 226.422 310.428,220.644 297.443,208.200 286.624 C 201.942 281.183,186.800 273.835,186.800 276.240 " stroke="none" fill="#fcf233" fill-rule="evenodd"></path></g></svg>