<?xml version="1.0" standalone="no"?>
<!DOCTYPE svg PUBLIC "-//W3C//DTD SVG 20010904//EN"
 "http://www.w3.org/TR/2001/REC-SVG-20010904/DTD/svg10.dtd">
<svg version="1.0" xmlns="http://www.w3.org/2000/svg"
 width="300.000000pt" height="300.000000pt" viewBox="0 0 300.000000 300.000000"
 preserveAspectRatio="xMidYMid meet">
<metadata>
Created by potrace 1.10, written by Peter Selinger 2001-2011
</metadata>
<g transform="translate(0.000000,300.000000) scale(0.100000,-0.100000)"
fill="#000000" stroke="none">
<path d="M1592 2898 c4 -24 13 -94 19 -155 23 -237 -40 -660 -114 -767 -18
-26 -22 -27 -32 -12 -7 9 -15 46 -19 84 -13 127 -57 240 -121 311 -39 43 -140
96 -200 105 -22 3 -34 3 -27 0 19 -9 56 -72 75 -128 23 -66 22 -180 -2 -264
-51 -185 -168 -329 -401 -495 -155 -110 -237 -219 -286 -382 -25 -80 -25 -301
-1 -434 10 -52 15 -96 12 -99 -11 -11 -40 28 -112 147 -47 80 -73 115 -69 96
2 -16 8 -50 11 -75 4 -25 18 -81 31 -125 104 -332 341 -525 739 -601 127 -24
456 -24 575 0 352 73 574 259 665 556 9 30 21 66 25 80 19 53 40 246 40 358 0
64 -7 173 -15 242 -17 136 -21 308 -9 355 4 17 18 47 31 68 14 22 23 40 21 42
-2 2 -20 8 -41 13 -54 15 -119 -9 -174 -65 -24 -23 -45 -43 -46 -43 -1 0 -2
69 -3 153 -1 352 -114 639 -348 884 -73 77 -210 193 -228 193 -3 0 -1 -19 4
-42z m283 -1025 c52 -113 134 -330 170 -448 199 -655 109 -1087 -261 -1251
-114 -50 -213 -67 -404 -67 -192 0 -290 17 -393 69 -154 79 -237 239 -237 459
0 195 52 303 248 523 161 180 206 262 227 415 3 26 8 47 11 47 17 0 85 -44
117 -75 45 -44 72 -96 80 -153 3 -24 8 -46 11 -49 5 -5 63 35 101 70 11 11 42
38 68 60 56 48 145 162 177 227 30 58 50 134 50 188 0 23 2 42 4 42 3 0 16
-26 31 -57z"/>
</g>
</svg>
